<?xml version="1.0" encoding="iso-8859-1"?>
<!-- Generator: Adobe Illustrator 19.0.0, SVG Export Plug-In . SVG Version: 6.00 Build 0)  -->
<svg version="1.1" id="Layer_1" xmlns="http://www.w3.org/2000/svg" xmlns:xlink="http://www.w3.org/1999/xlink" x="0px" y="0px"
	 viewBox="0 0 512 512" style="enable-background:new 0 0 512 512;" xml:space="preserve">
<g>
	<g>
		<path fill="#FFFF" d="M345.813,238.4c38.72-22.187,64.853-63.36,64.853-110.4c0-70.613-58.56-128-130.56-128H69.333
			c-5.867,0-10.667,4.8-10.667,10.667c0,5.867,4.8,10.667,10.667,10.667h53.333v469.333H69.333c-5.867,0-10.667,4.8-10.667,10.667
			c0,5.867,4.8,10.667,10.667,10.667H314.24c76.693,0,139.093-62.187,139.093-138.667C453.333,307.733,407.36,252.693,345.813,238.4
			z M144,21.333h136.107c60.267,0,109.227,47.893,109.227,106.667c0,58.773-48.96,106.667-109.227,106.667H144V21.333z
			 M314.24,490.667H144V256h170.24C379.2,256,432,308.693,432,373.333S379.2,490.667,314.24,490.667z"/>
	</g>
</g>
<g>
</g>
<g>
</g>
<g>
</g>
<g>
</g>
<g>
</g>
<g>
</g>
<g>
</g>
<g>
</g>
<g>
</g>
<g>
</g>
<g>
</g>
<g>
</g>
<g>
</g>
<g>
</g>
<g>
</g>
</svg>
